<svg xmlns="http://www.w3.org/2000/svg" width="192" height="304" class="svgbob">
  <style>.svgbob line, .svgbob path, .svgbob circle, .svgbob rect, .svgbob polygon {
  stroke: black;
  stroke-width: 2;
  stroke-opacity: 1;
  fill-opacity: 1;
  stroke-linecap: round;
  stroke-linejoin: miter;
}

.svgbob text {
  white-space: pre;
  fill: black;
  font-family: Iosevka Fixed, monospace;
  font-size: 14px;
}

.svgbob rect.backdrop {
  stroke: none;
  fill: white;
}

.svgbob .broken {
  stroke-dasharray: 8;
}

.svgbob .filled {
  fill: black;
}

.svgbob .bg_filled {
  fill: white;
  stroke-width: 1;
}

.svgbob .nofill {
  fill: white;
}

.svgbob .end_marked_arrow {
  marker-end: url(#arrow);
}

.svgbob .start_marked_arrow {
  marker-start: url(#arrow);
}

.svgbob .end_marked_diamond {
  marker-end: url(#diamond);
}

.svgbob .start_marked_diamond {
  marker-start: url(#diamond);
}

.svgbob .end_marked_circle {
  marker-end: url(#circle);
}

.svgbob .start_marked_circle {
  marker-start: url(#circle);
}

.svgbob .end_marked_open_circle {
  marker-end: url(#open_circle);
}

.svgbob .start_marked_open_circle {
  marker-start: url(#open_circle);
}

.svgbob .end_marked_big_open_circle {
  marker-end: url(#big_open_circle);
}

.svgbob .start_marked_big_open_circle {
  marker-start: url(#big_open_circle);
}

</style>
  <defs>
    <marker id="arrow" viewBox="-2 -2 8 8" refX="4" refY="2" markerWidth="7" markerHeight="7" orient="auto-start-reverse">
      <polygon points="0,0 0,4 4,2 0,0"></polygon>
    </marker>
    <marker id="diamond" viewBox="-2 -2 8 8" refX="4" refY="2" markerWidth="7" markerHeight="7" orient="auto-start-reverse">
      <polygon points="0,2 2,0 4,2 2,4 0,2"></polygon>
    </marker>
    <marker id="circle" viewBox="0 0 8 8" refX="4" refY="4" markerWidth="7" markerHeight="7" orient="auto-start-reverse">
      <circle cx="4" cy="4" r="2" class="filled"></circle>
    </marker>
    <marker id="open_circle" viewBox="0 0 8 8" refX="4" refY="4" markerWidth="7" markerHeight="7" orient="auto-start-reverse">
      <circle cx="4" cy="4" r="2" class="bg_filled"></circle>
    </marker>
    <marker id="big_open_circle" viewBox="0 0 8 8" refX="4" refY="4" markerWidth="7" markerHeight="7" orient="auto-start-reverse">
      <circle cx="4" cy="4" r="3" class="bg_filled"></circle>
    </marker>
  </defs>
  <rect class="backdrop" x="0" y="0" width="192" height="304"></rect>
  <text x="2" y="28" >x[0]</text>
  <text x="50" y="28" >x[1]</text>
  <text x="98" y="28" >x[2]</text>
  <text x="58" y="108" >f</text>
  <text x="106" y="172" >f</text>
  <text x="146" y="236" >.</text>
  <text x="162" y="236" >.</text>
  <text x="178" y="236" >.</text>
  <text x="2" y="284" >r[0]</text>
  <text x="50" y="284" >r[1]</text>
  <text x="98" y="284" >r[2]</text>
  <g>
    <line x1="12" y1="48" x2="12" y2="256" class="solid"></line>
    <line x1="60" y1="48" x2="60" y2="72" class="solid"></line>
    <line x1="44" y1="72" x2="76" y2="72" class="solid"></line>
    <line x1="44" y1="72" x2="44" y2="136" class="solid"></line>
    <line x1="76" y1="72" x2="76" y2="136" class="solid"></line>
    <line x1="12" y1="104" x2="44" y2="104" class="solid"></line>
    <line x1="44" y1="136" x2="76" y2="136" class="solid"></line>
    <line x1="60" y1="136" x2="60" y2="256" class="solid"></line>
    <line x1="108" y1="48" x2="108" y2="136" class="solid"></line>
    <line x1="92" y1="136" x2="124" y2="136" class="solid"></line>
    <line x1="92" y1="136" x2="92" y2="200" class="solid"></line>
    <line x1="124" y1="136" x2="124" y2="200" class="solid"></line>
    <line x1="60" y1="168" x2="92" y2="168" class="solid"></line>
    <line x1="92" y1="200" x2="124" y2="200" class="solid"></line>
    <line x1="108" y1="200" x2="108" y2="256" class="solid"></line>
    <line x1="108" y1="232" x2="136" y2="232" class="solid"></line>
  </g>
</svg>
