<svg xmlns="http://www.w3.org/2000/svg" width="648" height="368" class="svgbob">
  <style>.svgbob line, .svgbob path, .svgbob circle, .svgbob rect, .svgbob polygon {
  stroke: black;
  stroke-width: 2;
  stroke-opacity: 1;
  fill-opacity: 1;
  stroke-linecap: round;
  stroke-linejoin: miter;
}

.svgbob text {
  white-space: pre;
  fill: black;
  font-family: Iosevka Fixed, monospace;
  font-size: 14px;
}

.svgbob rect.backdrop {
  stroke: none;
  fill: white;
}

.svgbob .broken {
  stroke-dasharray: 8;
}

.svgbob .filled {
  fill: black;
}

.svgbob .bg_filled {
  fill: white;
  stroke-width: 1;
}

.svgbob .nofill {
  fill: white;
}

.svgbob .end_marked_arrow {
  marker-end: url(#arrow);
}

.svgbob .start_marked_arrow {
  marker-start: url(#arrow);
}

.svgbob .end_marked_diamond {
  marker-end: url(#diamond);
}

.svgbob .start_marked_diamond {
  marker-start: url(#diamond);
}

.svgbob .end_marked_circle {
  marker-end: url(#circle);
}

.svgbob .start_marked_circle {
  marker-start: url(#circle);
}

.svgbob .end_marked_open_circle {
  marker-end: url(#open_circle);
}

.svgbob .start_marked_open_circle {
  marker-start: url(#open_circle);
}

.svgbob .end_marked_big_open_circle {
  marker-end: url(#big_open_circle);
}

.svgbob .start_marked_big_open_circle {
  marker-start: url(#big_open_circle);
}

</style>
  <defs>
    <marker id="arrow" viewBox="-2 -2 8 8" refX="4" refY="2" markerWidth="7" markerHeight="7" orient="auto-start-reverse">
      <polygon points="0,0 0,4 4,2 0,0"></polygon>
    </marker>
    <marker id="diamond" viewBox="-2 -2 8 8" refX="4" refY="2" markerWidth="7" markerHeight="7" orient="auto-start-reverse">
      <polygon points="0,2 2,0 4,2 2,4 0,2"></polygon>
    </marker>
    <marker id="circle" viewBox="0 0 8 8" refX="4" refY="4" markerWidth="7" markerHeight="7" orient="auto-start-reverse">
      <circle cx="4" cy="4" r="2" class="filled"></circle>
    </marker>
    <marker id="open_circle" viewBox="0 0 8 8" refX="4" refY="4" markerWidth="7" markerHeight="7" orient="auto-start-reverse">
      <circle cx="4" cy="4" r="2" class="bg_filled"></circle>
    </marker>
    <marker id="big_open_circle" viewBox="0 0 8 8" refX="4" refY="4" markerWidth="7" markerHeight="7" orient="auto-start-reverse">
      <circle cx="4" cy="4" r="3" class="bg_filled"></circle>
    </marker>
  </defs>
  <rect class="backdrop" x="0" y="0" width="648" height="368"></rect>
  <polygon points="184,52 192,52 188,64" class="filled"></polygon>
  <text x="146" y="92" >take:</text>
  <text x="202" y="92" >true</text>
  <text x="146" y="124" >hist:</text>
  <text x="202" y="124" >true</text>
  <polygon points="184,156 188,144 192,156" class="filled"></polygon>
  <line x1="188" y1="156" x2="188" y2="216" class="solid"></line>
  <text x="146" y="252" >take:</text>
  <text x="194" y="252" >false</text>
  <text x="146" y="284" >hist:</text>
  <text x="194" y="284" >true</text>
  <text x="34" y="60" >taken</text>
  <text x="290" y="76" >not</text>
  <text x="322" y="76" >taken</text>
  <line x1="260" y1="88" x2="384" y2="88" class="solid"></line>
  <polygon points="384,84 392,88 384,92" class="filled"></polygon>
  <text x="418" y="92" >take:</text>
  <text x="466" y="92" >true</text>
  <text x="418" y="124" >hist:</text>
  <text x="466" y="124" >false</text>
  <line x1="460" y1="152" x2="460" y2="212" class="solid"></line>
  <polygon points="456,212 464,212 460,224" class="filled"></polygon>
  <text x="418" y="252" >take:</text>
  <text x="466" y="252" >false</text>
  <text x="418" y="284" >hist:</text>
  <text x="466" y="284" >false</text>
  <polygon points="456,316 460,304 464,316" class="filled"></polygon>
  <polygon points="264,116 256,120 264,124" class="filled"></polygon>
  <line x1="264" y1="120" x2="388" y2="120" class="solid"></line>
  <text x="290" y="140" >taken</text>
  <text x="202" y="188" >taken</text>
  <text x="474" y="188" >not</text>
  <text x="506" y="188" >taken</text>
  <text x="290" y="236" >taken</text>
  <polygon points="264,244 256,248 264,252" class="filled"></polygon>
  <line x1="264" y1="248" x2="388" y2="248" class="solid"></line>
  <line x1="260" y1="280" x2="384" y2="280" class="solid"></line>
  <polygon points="384,276 392,280 384,284" class="filled"></polygon>
  <text x="290" y="300" >not</text>
  <text x="322" y="300" >taken</text>
  <text x="570" y="316" >not</text>
  <text x="602" y="316" >taken</text>
  <g>
    <line x1="84" y1="24" x2="188" y2="24" class="solid"></line>
    <line x1="84" y1="24" x2="84" y2="104" class="solid"></line>
    <line x1="188" y1="24" x2="188" y2="52" class="solid"></line>
    <line x1="132" y1="72" x2="244" y2="72" class="solid"></line>
    <line x1="132" y1="72" x2="132" y2="136" class="solid"></line>
    <line x1="244" y1="72" x2="244" y2="136" class="solid"></line>
    <line x1="84" y1="104" x2="244" y2="104" class="solid"></line>
    <line x1="132" y1="136" x2="244" y2="136" class="solid"></line>
  </g>
  <g>
    <line x1="132" y1="232" x2="244" y2="232" class="solid"></line>
    <line x1="132" y1="232" x2="132" y2="296" class="solid"></line>
    <line x1="244" y1="232" x2="244" y2="296" class="solid"></line>
    <line x1="132" y1="264" x2="244" y2="264" class="solid"></line>
    <line x1="132" y1="296" x2="244" y2="296" class="solid"></line>
  </g>
  <g>
    <line x1="404" y1="72" x2="516" y2="72" class="solid"></line>
    <line x1="404" y1="72" x2="404" y2="136" class="solid"></line>
    <line x1="516" y1="72" x2="516" y2="136" class="solid"></line>
    <line x1="404" y1="104" x2="516" y2="104" class="solid"></line>
    <line x1="404" y1="136" x2="516" y2="136" class="solid"></line>
  </g>
  <g>
    <line x1="404" y1="232" x2="516" y2="232" class="solid"></line>
    <line x1="404" y1="232" x2="404" y2="296" class="solid"></line>
    <line x1="516" y1="232" x2="516" y2="296" class="solid"></line>
    <line x1="404" y1="264" x2="556" y2="264" class="solid"></line>
    <line x1="556" y1="264" x2="556" y2="344" class="solid"></line>
    <line x1="404" y1="296" x2="516" y2="296" class="solid"></line>
    <line x1="460" y1="316" x2="460" y2="344" class="solid"></line>
    <line x1="460" y1="344" x2="556" y2="344" class="solid"></line>
  </g>
</svg>
