<svg xmlns="http://www.w3.org/2000/svg" width="296" height="448" class="svgbob">
  <style>.svgbob line, .svgbob path, .svgbob circle, .svgbob rect, .svgbob polygon {
  stroke: black;
  stroke-width: 2;
  stroke-opacity: 1;
  fill-opacity: 1;
  stroke-linecap: round;
  stroke-linejoin: miter;
}

.svgbob text {
  white-space: pre;
  fill: black;
  font-family: Iosevka Fixed, monospace;
  font-size: 14px;
}

.svgbob rect.backdrop {
  stroke: none;
  fill: white;
}

.svgbob .broken {
  stroke-dasharray: 8;
}

.svgbob .filled {
  fill: black;
}

.svgbob .bg_filled {
  fill: white;
  stroke-width: 1;
}

.svgbob .nofill {
  fill: white;
}

.svgbob .end_marked_arrow {
  marker-end: url(#arrow);
}

.svgbob .start_marked_arrow {
  marker-start: url(#arrow);
}

.svgbob .end_marked_diamond {
  marker-end: url(#diamond);
}

.svgbob .start_marked_diamond {
  marker-start: url(#diamond);
}

.svgbob .end_marked_circle {
  marker-end: url(#circle);
}

.svgbob .start_marked_circle {
  marker-start: url(#circle);
}

.svgbob .end_marked_open_circle {
  marker-end: url(#open_circle);
}

.svgbob .start_marked_open_circle {
  marker-start: url(#open_circle);
}

.svgbob .end_marked_big_open_circle {
  marker-end: url(#big_open_circle);
}

.svgbob .start_marked_big_open_circle {
  marker-start: url(#big_open_circle);
}

</style>
  <defs>
    <marker id="arrow" viewBox="-2 -2 8 8" refX="4" refY="2" markerWidth="7" markerHeight="7" orient="auto-start-reverse">
      <polygon points="0,0 0,4 4,2 0,0"></polygon>
    </marker>
    <marker id="diamond" viewBox="-2 -2 8 8" refX="4" refY="2" markerWidth="7" markerHeight="7" orient="auto-start-reverse">
      <polygon points="0,2 2,0 4,2 2,4 0,2"></polygon>
    </marker>
    <marker id="circle" viewBox="0 0 8 8" refX="4" refY="4" markerWidth="7" markerHeight="7" orient="auto-start-reverse">
      <circle cx="4" cy="4" r="2" class="filled"></circle>
    </marker>
    <marker id="open_circle" viewBox="0 0 8 8" refX="4" refY="4" markerWidth="7" markerHeight="7" orient="auto-start-reverse">
      <circle cx="4" cy="4" r="2" class="bg_filled"></circle>
    </marker>
    <marker id="big_open_circle" viewBox="0 0 8 8" refX="4" refY="4" markerWidth="7" markerHeight="7" orient="auto-start-reverse">
      <circle cx="4" cy="4" r="3" class="bg_filled"></circle>
    </marker>
  </defs>
  <rect class="backdrop" x="0" y="0" width="296" height="448"></rect>
  <text x="34" y="28" >Address</text>
  <line x1="32" y1="40" x2="88" y2="40" class="solid"></line>
  <text x="50" y="76" >24576</text>
  <text x="130" y="156" >Hart</text>
  <text x="170" y="156" >0</text>
  <text x="218" y="156" >Hart</text>
  <text x="258" y="156" >1</text>
  <text x="122" y="188" >DMEM</text>
  <text x="162" y="188" >TCM</text>
  <text x="210" y="188" >DMEM</text>
  <text x="250" y="188" >TCM</text>
  <text x="50" y="284" >16384</text>
  <text x="162" y="348" >IMEM</text>
  <text x="202" y="348" >TCM</text>
  <text x="82" y="428" >0</text>
  <g>
    <line x1="108" y1="72" x2="284" y2="72" class="solid"></line>
    <line x1="108" y1="72" x2="108" y2="424" class="solid"></line>
    <line x1="196" y1="72" x2="196" y2="280" class="solid"></line>
    <line x1="284" y1="72" x2="284" y2="424" class="solid"></line>
    <line x1="108" y1="280" x2="284" y2="280" class="solid"></line>
    <line x1="108" y1="424" x2="284" y2="424" class="solid"></line>
  </g>
</svg>
